/* XPM */
static char *b0833c5556f644bda9f271b6f62ba1b4hlfQyw6hBOVPsaDy[] = {
/* columns rows colors chars-per-pixel */
"32 32 220 2 ",
"   c #1A1414",
".  c #1F1919",
"X  c #191313",
"o  c #221B1B",
"O  c #241B1B",
"+  c #25201F",
"@  c #272121",
"#  c #2B2323",
"$  c #2D2927",
"%  c #322C2B",
"&  c #3C2D2D",
"*  c #34302E",
"=  c #3A3534",
"-  c #3C3836",
";  c #613B0E",
":  c #433D3B",
">  c #493C3D",
",  c #6E4B15",
"<  c #744E18",
"1  c #6E5315",
"2  c #7A591B",
"3  c #76510B",
"4  c #45413F",
"5  c #564927",
"6  c #7E5429",
"7  c #7E592D",
"8  c #7B5625",
"9  c #695A3A",
"0  c #775838",
"q  c #7A4F25",
"w  c #7C642F",
"e  c #4B4545",
"r  c #4D4946",
"t  c #534244",
"y  c #524C4C",
"u  c #5A4D56",
"i  c #565252",
"p  c #5A5453",
"a  c #5D5956",
"s  c #5D545A",
"d  c #5F595A",
"f  c #68574B",
"g  c #655859",
"h  c #765A53",
"j  c #664F4A",
"k  c #65605E",
"l  c #625363",
"z  c #695C61",
"x  c #6A5C6A",
"c  c #655B61",
"v  c #6C5771",
"b  c #666161",
"n  c #696464",
"m  c #6E636A",
"M  c #756469",
"N  c #726274",
"B  c #7E6A7E",
"V  c #787375",
"C  c #84671B",
"Z  c #835B2C",
"A  c #8B5320",
"S  c #845D32",
"D  c #88652D",
"F  c #8B6434",
"G  c #82623D",
"H  c #8D663A",
"J  c #846A38",
"K  c #926A3C",
"L  c #976C37",
"P  c #94733B",
"I  c #9B743C",
"U  c #977838",
"Y  c #95702A",
"T  c #A6753C",
"R  c #A36B39",
"E  c #865D46",
"W  c #8B6649",
"Q  c #886B45",
"!  c #966A47",
"~  c #9A7644",
"^  c #8C6856",
"/  c #926A5B",
"(  c #837657",
")  c #9A7556",
"_  c #A57C45",
"`  c #AA7A43",
"'  c #A27C4D",
"]  c #A5774A",
"[  c #A37654",
"{  c #A47A52",
"}  c #A37C5B",
"|  c #AA7A59",
" . c #B27F46",
".. c #8F6A6B",
"X. c #9A7669",
"o. c #886B78",
"O. c #987777",
"+. c #A47B64",
"@. c #A47C76",
"#. c #9C803E",
"$. c #A7853E",
"%. c #9C8459",
"&. c #9D8249",
"*. c #A28344",
"=. c #A0814C",
"-. c #AE814D",
";. c #AE8747",
":. c #B28949",
">. c #BA944E",
",. c #B29249",
"<. c #AE8B54",
"1. c #AD8459",
"2. c #A78659",
"3. c #B58C55",
"4. c #BE8B54",
"5. c #B38B5B",
"6. c #BB895E",
"7. c #AE9151",
"8. c #B59255",
"9. c #BB9553",
"0. c #BC935B",
"q. c #B8995A",
"w. c #BEA05A",
"e. c #9E876C",
"r. c #9E906C",
"t. c #9D8475",
"y. c #A9876B",
"u. c #B68C62",
"i. c #BD8A64",
"p. c #B38A6C",
"a. c #B7896D",
"s. c #B49263",
"d. c #BB9364",
"f. c #BC956B",
"g. c #B59C6C",
"h. c #B79768",
"j. c #A78675",
"k. c #B38776",
"l. c #BB9C75",
"z. c #BB9876",
"x. c #AC9468",
"c. c #B9A36D",
"v. c #BDA478",
"b. c #C28F5B",
"n. c #C28F56",
"m. c #C1925A",
"M. c #CA955F",
"N. c #C29657",
"B. c #C28F67",
"V. c #C59766",
"C. c #C7A174",
"Z. c #7B6483",
"A. c #7E648A",
"S. c #7F6A84",
"D. c #846D8B",
"F. c #826786",
"G. c #8A738C",
"H. c #997983",
"J. c #94758E",
"K. c #9C7C8B",
"L. c #947482",
"P. c #876B95",
"I. c #8A6E95",
"U. c #8B6F98",
"Y. c #8E7396",
"T. c #8E739A",
"R. c #957A93",
"E. c #9A7C93",
"W. c #92769D",
"Q. c #94799D",
"!. c #9A7C9B",
"~. c #977BA1",
"^. c #997EA2",
"/. c #99878E",
"(. c #9E8294",
"). c #9D819E",
"_. c #988999",
"`. c #989598",
"'. c #8C898B",
"]. c #A4848C",
"[. c #A78885",
"{. c #B28C8A",
"}. c #A48495",
"|. c #A2859D",
" X c #AB8B96",
".X c #B38E97",
"XX c #B59996",
"oX c #B29A93",
"OX c #B9AC8D",
"+X c #9D81A4",
"@X c #9E8AA0",
"#X c #A185A4",
"$X c #A58AAA",
"%X c #AA8EAD",
"&X c #A78BA5",
"*X c #AC94AA",
"=X c #B496A8",
"-X c #AD92B1",
";X c #B499B6",
":X c #A9A7A9",
">X c #BAB4BA",
",X c #B1A5A8",
"<X c #C09E84",
"1X c #C0B7B3",
"2X c #BEBCC1",
"3X c #C2BEC4",
"4X c #C8C5CB",
"5X c #D1CFD2",
"6X c #D2D1D4",
"7X c #D9D7D9",
"8X c #DEDDE2",
"9X c #E4E4E6",
"0X c #E5E5EB",
"qX c #E9E9EE",
"wX c #E8E7EA",
"eX c #F0EFEF",
"rX c #ECEDF1",
"tX c #F3F3F5",
"yX c #FBFBFC",
"uX c #F6F6F9",
/* pixels */
"5 9 W 0 ; , 8 Z F K K H O.O.7 H F S Z G W Q J J J Q Q G Q J w ( ",
"9 r.<X) 7 K { 5.f.C.C.z.|.O.~ V.d.2.1.z.<Xl.g.c.c.v.l.z.l.g.g.OX",
"1 2.V.L , D I I I ~ <.3.2.! _ d.<.L P 6.i.-.;.:.9.3.-.3.m.0.~ e.",
"w &.B._ , D _ P W / 2.h.[. Xs.8.*.8 D p.i.` ` 5.oXp._ _ 0.8.2 9 ",
"2 *.n.T S ! [ @.$X%X&X&X#X(.p.p.} / ].*X.X| | .X;X&X} | B.5.S h ",
"1 #.M.4.a.| +.}.%X-X$X+XE.E [ z.K.#X%X%X$X}.@.|.%X#X} ] B.s.7 j ",
"2 *.V.b.M.6.}.+X#X#XQ.T.!.X.j.{.#X+X+X+X+X+X+X+X#X|.] T >.,.C 9 ",
"P 7.b.T A R O.~.^.T.Z.Z.S.G.R.).Q.U.P.P.Q.+X(.H.+XH.] ;.:.,.$.r.",
"=.8.i.! 0 O.E.Q.Z.x c b k k b n x v A.P.T.!.+.H ^ W ] -.3.q.w.OX",
"(.y.B.6.(.+XY.m b n n g i e : e a g l A.U.Y.) F Z ! [ _ 0.q.U ( ",
"O.2.a.k.#XD.z k p p g a r = # o * y a s Z.P.L.^ ..#X].{ 0.7.2 9 ",
"=.].E.G.G.d p * % - e : = # .   + - r p l F.U.W.#X-X%X[.0.8.t./.",
"2.#X@X_.u a - .   o @ + o   X     o % e p N W.Q.+X%X#XE.f.4.{.XX",
"j.#X>X5Xa - o   X X X X X X X   X X . o % d D.W.~.+X~.H.f.u.|.XX",
"' (.5XuXn . X       X X X X   X X = `.b . 4 N W.W.W.E.y.u.i. X=X",
"$.[.7XyX:Xo X X X X X       X o n 4X0X`.  % c Y.W.T.y.d.u.4. .e.",
":.s.9XyXeXd     X X X     X = :X0X0X9X2X% @ i D.~.R.5.f.[.{.y.) ",
">.s.9XyXyX>X$ o X     . . p 6XyXtX0X0X6Xt O r F.~.Q.p.p.).%X=Xj.",
"9.<.7XyXyX9Xb %   # o @ V wXyXyXtXqXqX6Xt O r F.~.Q.R.R.^.$X*Xj.",
">.:.1XtXuX6X:X> o & = `.9XyXyXyXrXqXwX2X& # y D.~.Q.^.^.+X#X%X[.",
">.s.*X0XqXqX3X$   o V yX7XuXyXtXqX0XqX`.O % s Y.^.^.^.+X+X+X#X(.",
"9.XX).4XqXrXoXo X . m tXuXuXtX0X0XrX8Xy   : x Q.~.^.^.^.^.^.).t.",
">.XX-X_.3X>Xt X X . : ,XqXqX0X9XqXrX'.# % y Z.^.^.~.~.^.!.j.+.%.",
">.z.=X&Xm :   X X o % t '.5X9X0X8X`.= = r l W.+X+X^.^.^.[.4. .%.",
">.N.f.]._.x # O X o $ % $ e V V i = = e i A.W.^.+X#X|.&Xz.4.` %.",
"Y ,.d.j.G.Q.l g g t > > t M n $ * : r p Z.W.T.W.).X.~ } u.4.:.x.",
"3 $.f.j.).K.o.u M K. X=X}.m i = e y g D.^.Q.T.W.K.F , S u.M.n.v.",
"3 ;.f.1.) ! ! o.l u z z e % : y s N Q.+X+XQ.W.W.H.P 8 F d.b.` 2.",
"q { g.2.` -.V.y.~.I.N l s x B G.Q.+XE.!.^.W.U.P.O.) K.! m.d.7 f ",
"7 1.g.2.L _ V.k.+X+X~.Q.J...E.+X^.Q.} [ J.P.F./ [ ! X.K m.s.7 f ",
"6 1.h.~ Z L d.5.O.).+X^.].5.X.I.J.j.<._ X.F.h K } ~ I I 0.h.0 f ",
"q 1.q.P < F d.5._ X.|.}.].f.1.) } d.5._ I S < F { ' _ _ V.h.S f "
};
