/* XPM */
static char *_79d8e2587674d5086cf858761106f55LVkzYZQWEJLT8pnD[] = {
/* columns rows colors chars-per-pixel */
"32 32 181 2 ",
"   c #613B0E",
".  c #76510B",
"X  c #664013",
"o  c #6E481B",
"O  c #6D4D14",
"+  c #774F1B",
"@  c #794F1D",
"#  c #6F5411",
"$  c #6C5219",
"%  c #7C5511",
"&  c #7A531D",
"*  c #7A5C1C",
"=  c #775B1A",
"-  c #564927",
";  c #7D4F25",
":  c #754F22",
">  c #7D5225",
",  c #7E5529",
"<  c #7E592D",
"1  c #7C5C23",
"2  c #665937",
"3  c #685338",
"4  c #6D5F3D",
"5  c #635332",
"6  c #775539",
"7  c #7B5B34",
"8  c #7A6027",
"9  c #7E6837",
"0  c #3A3A50",
"q  c #4D4A4A",
"w  c #46465E",
"e  c #664F4A",
"r  c #695749",
"t  c #68584C",
"y  c #675950",
"u  c #705953",
"i  c #6B6362",
"p  c #756E6E",
"a  c #6C7865",
"s  c #815816",
"d  c #84521F",
"f  c #84671B",
"g  c #845C2B",
"h  c #885E2C",
"j  c #855325",
"k  c #845E31",
"l  c #8D6026",
"z  c #8A642D",
"x  c #92632A",
"c  c #95702A",
"v  c #866033",
"b  c #8C6434",
"n  c #826C36",
"m  c #82623D",
"M  c #8C6639",
"N  c #866E3D",
"B  c #936534",
"V  c #94633C",
"C  c #946B3B",
"Z  c #9A6C3A",
"A  c #937432",
"S  c #9C7A34",
"D  c #94743B",
"F  c #9D743C",
"G  c #987A3C",
"H  c #AB6736",
"J  c #A27239",
"K  c #AA773E",
"L  c #A57B3C",
"P  c #AB783F",
"I  c #A17C36",
"U  c #B37B3F",
"Y  c #896C44",
"T  c #8A684F",
"R  c #876946",
"E  c #9F6F49",
"W  c #9C6B42",
"Q  c #81714F",
"!  c #9D7445",
"~  c #9D7B43",
"^  c #9D7448",
"/  c #837657",
"(  c #957D51",
")  c #947156",
"_  c #A17644",
"`  c #A57A45",
"'  c #AC7A43",
"]  c #A4734D",
"[  c #A47B4C",
"{  c #AA7B4C",
"}  c #B27F46",
"|  c #A47253",
" . c #A77C51",
".. c #A67358",
"X. c #AD7C54",
"o. c #857D7C",
"O. c #CB794D",
"+. c #568D61",
"@. c #9C803E",
"#. c #A7823C",
"$. c #A88B3F",
"%. c #AA853F",
"&. c #D98232",
"*. c #E6AD38",
"=. c #9E8246",
"-. c #9A8256",
";. c #9D8559",
":. c #A18343",
">. c #AF8945",
",. c #A18148",
"<. c #AD834D",
"1. c #A9894E",
"2. c #AE8146",
"3. c #B08541",
"4. c #B28B46",
"5. c #B58249",
"6. c #B38E4B",
"7. c #B09247",
"8. c #B7924D",
"9. c #BA944E",
"0. c #AB8256",
"q. c #AF8D53",
"w. c #AE8459",
"e. c #A48A5D",
"r. c #A48753",
"t. c #B68B54",
"y. c #BC8A53",
"u. c #B2855B",
"i. c #B38B5A",
"p. c #BD8E5C",
"a. c #B38450",
"s. c #AE9151",
"d. c #B59355",
"f. c #BB9651",
"g. c #BC9954",
"h. c #B4975F",
"j. c #BB935C",
"k. c #BE9E5A",
"l. c #BEA05A",
"z. c #9E8C6D",
"x. c #9E906C",
"c. c #B68D62",
"v. c #BC8260",
"b. c #AC9468",
"n. c #B79164",
"m. c #BB9265",
"M. c #BD9469",
"N. c #B59C6C",
"B. c #B89968",
"V. c #B69B72",
"C. c #BC9E76",
"Z. c #BB9F78",
"A. c #B9A36D",
"S. c #BEA679",
"D. c #BBA177",
"F. c #C18F57",
"G. c #C28F58",
"H. c #C39057",
"J. c #C1925B",
"K. c #CB965A",
"L. c #C19C57",
"P. c #C08F66",
"I. c #C88D6D",
"U. c #C99167",
"Y. c #C49963",
"T. c #C89867",
"R. c #C2956B",
"E. c #CD956B",
"W. c #C39868",
"Q. c #CB9070",
"!. c #C49B70",
"~. c #E6976D",
"^. c #C4AC7F",
"/. c #9A9492",
"(. c #A19D9B",
"). c #B4A585",
"_. c #BEB394",
"`. c #C09E84",
"'. c #F0AE80",
"]. c #EBE4F2",
"[. c #F8F8F8",
/* pixels */
"- 4 T 6   o > g b C C M : X , M v k g m T Y N n n Y Y m Y N 9 / ",
"2 z.`.) , C w w w w w w w w w w w w w w `.C.N.A.A.D.Z.V.C.N.N._.",
"$ r.T.Z w w /./././.(.(.(.(.(.(.(.(.(.(.w w 2.6.f.t.<.t.J.j.~ z.",
"8 =.w w p p /./././././.(.(.(.(.(.(.(.(.(.(.w w f.t.` ` j.d.& 3 ",
"* :.w w p p o.o././././././././.(.(.(.(.w w w w u.u.| X.P.i.k u ",
"# @.w w w w o.o.o.o.o.o.q q w w w w q q o.o.w w > V ] ] R.n.< e ",
"= :.w w i i w w w w q q o.o././.(.(././././.w w s x J L 9.7.f 4 ",
"A s.w w i i p p o.o././.(.(././.(.(././././.w w % l ` 3.4.7.$.x.",
"=.d.w w i i p p o.o././.(.(././.(.(././././.w w q q ] <.t.k.l.).",
"G 1.q q w w p p /./.o.o././.(.(././.(.(.o.o.p p w w E ` j.g.S Q ",
"G 1.Q.I.w w i i /./.o.o././.(.(.o.o.o.o.p p q q w w ..{ p.6.* 5 ",
":.q.I.v.0 0 q q i i p p p p p p p p i i i i o.o.0 0 | { p.d.A Q ",
"%.>.c.! 0 0 i i p p /./././././././././././././.0 0 ,.[ R.y.H.^.",
"I 4.M.^ 0 0 i i p p o.o././././././././././.(.(.0 0 0 0 M.y.y.V.",
"S 6.w w H H 0 0 p p p p o.o.o.o././.(.(.(.(.0 0 K.K.H H 0 0 5.e.",
"#.8.0 0 H H H H 0 0 0 0 0 0 0 0 0 0 0 0 0 0 U U U U U U 0 0 ' ( ",
"4.f.0 0 H H H H H H U U U U U U U U U U K.K.E.E.E.E.U U 0 0 K ( ",
"9.f.0 0 H H H H H H H H U U E.E.'.'.'.'.'.'.'.'.'.'.w w M.F.P -.",
"f.f.0 0 H H H H H H H H H H '.'.'.'.'.'.'.'.'.'.'.'.w w M.y.' ;.",
"9.f.w w H H H H H H H H E.U.'.'.'.'.'.'.'.'.'.'.'.'.w w m.y.' e.",
"8.f.M.w.w w H H H H ~.~.'.'.'.'.'.'.'.'.'.'.0 0 '.'.w w m.F.J ;.",
"f.g.m.0.0 0 H H H H ~.~.~.~.'.'.'.'.'.'.'.'.+.+.'.'.0 0 m.H.K ;.",
"9.f.m.u._ { 0 0 ~.~.~.~.'.'.'.'.'.'.~.~.O.O.O.O.0 0 1 M w.y.' ;.",
"9.g.m.u.[ C h b 0 0 0 0 0 0 0 0 0 0 w w w w w w p.q.1.w.m.y.} ;.",
"9.L.m.0._ C > h 0 0 ].].0 0 ].].].].w w ].].0 0 J.j.B.R.!.y.' -.",
"c 6.m.w._ C @ g 0 0 ].].0 0 [.[.[.[.w w [.[.0 0 a.~ D [ c.y.5.b.",
". #.M.i._ B & g 0 0 ].].w w '.'.'.'.w w [.[.0 0 _ z O k c.K.H.S.",
"% >.M.w.! C C Z 0 0 ].].w w ~.~.'.'.w w [.[.0 0 { D * b m.G.' e.",
">  .B.e.` <.T.t.` ` 0 0 0 0 w w w w &.&.0 0 ; V { Z d x H.n.< r ",
", w.N.r.Z ` Y.p.` ` 0 0 &.&.*.*.*.*.*.*.0 0 j W { B j x H.n.< r ",
", w.B.~ g C m.i._ _ 0 0 a a a a a a 0 0 L z + C [ F F F j.n.7 t ",
"; w.h.D + b m.i._ _ i.j.0 0 0 0 0 0 i.` F g + b [ { ` ` Y.B.m y "
};
