/* XPM */
static char *_d18cc9335d14ddfb16155f0f715b2b336Hi48GMZCA0FHI1[] = {
/* columns rows colors chars-per-pixel */
"32 32 178 2 ",
"   c #613B0E",
".  c #76510B",
"X  c #654312",
"o  c #6E4C13",
"O  c #6E481B",
"+  c #774E1B",
"@  c #754E18",
"#  c #6F5411",
"$  c #6C5219",
"%  c #7B5610",
"&  c #7A531D",
"*  c #7A5C1C",
"=  c #775B1A",
"-  c #564927",
";  c #7D4F25",
":  c #754F22",
">  c #7C5325",
",  c #7E5529",
"<  c #7E592D",
"1  c #7C5C23",
"2  c #665937",
"3  c #685338",
"4  c #6D5F3D",
"5  c #635332",
"6  c #775539",
"7  c #7B5B34",
"8  c #7A6027",
"9  c #7E6837",
"0  c #3A3A50",
"q  c #4D4A4A",
"w  c #46465E",
"e  c #664F4A",
"r  c #695749",
"t  c #68584C",
"y  c #675950",
"u  c #705953",
"i  c #6B6362",
"p  c #756E6E",
"a  c #6C7865",
"s  c #84521F",
"d  c #84671B",
"f  c #845C2A",
"g  c #885E2C",
"h  c #875323",
"j  c #845C32",
"k  c #85642C",
"l  c #8B682F",
"z  c #93622B",
"x  c #95702A",
"c  c #866033",
"v  c #8C6434",
"b  c #826C36",
"n  c #82623D",
"m  c #8C6639",
"M  c #866E3D",
"N  c #936534",
"B  c #946B3B",
"V  c #9A6C3A",
"C  c #96653C",
"Z  c #937333",
"A  c #9C7A34",
"S  c #94743B",
"D  c #9C743C",
"F  c #9A7A3E",
"G  c #AB6736",
"H  c #A46C39",
"J  c #A5723C",
"K  c #AA773E",
"L  c #AB783F",
"P  c #A17C36",
"I  c #B37B3F",
"U  c #896C44",
"Y  c #8A684F",
"T  c #876946",
"R  c #9C6A42",
"E  c #9A6F4D",
"W  c #956A48",
"Q  c #81714F",
"!  c #9D7445",
"~  c #9C7B43",
"^  c #9C7E48",
"/  c #9D7448",
"(  c #837657",
")  c #957D51",
"_  c #947156",
"`  c #A17644",
"'  c #AF7744",
"]  c #A47A45",
"[  c #AC7A43",
"{  c #A37B4C",
"}  c #AA7B4B",
"|  c #B17F4A",
" . c #A17654",
".. c #A77C51",
"X. c #AA7F5D",
"o. c #857D7C",
"O. c #CB794D",
"+. c #4A8E46",
"@. c #568D61",
"#. c #9C803E",
"$. c #A7823C",
"%. c #A88B3F",
"&. c #AA853F",
"*. c #D98232",
"=. c #E6AD38",
"-. c #9E8246",
";. c #9A8256",
":. c #9D8559",
">. c #A18343",
",. c #AF8945",
"<. c #AC844C",
"1. c #A9894E",
"2. c #B18C46",
"3. c #B58249",
"4. c #B28E4B",
"5. c #B7924D",
"6. c #B9944E",
"7. c #AB8256",
"8. c #A48950",
"9. c #AF8D53",
"0. c #AE8559",
"q. c #A48A5D",
"w. c #A98759",
"e. c #BA8553",
"r. c #BC8A53",
"t. c #B2865B",
"y. c #B38B59",
"u. c #BD8E5C",
"i. c #B38450",
"p. c #AE9151",
"a. c #B59455",
"s. c #BB9651",
"d. c #BE9954",
"f. c #B4975F",
"g. c #BB945E",
"h. c #BEA05A",
"j. c #9E8C6D",
"k. c #9E906C",
"l. c #B68D62",
"z. c #BF8963",
"x. c #BB8866",
"c. c #AC9468",
"v. c #B79164",
"b. c #BB9265",
"n. c #BD9569",
"m. c #B59C6C",
"M. c #B79867",
"N. c #B69B72",
"B. c #BB9F78",
"V. c #BB9D77",
"C. c #BEA679",
"Z. c #C28F57",
"A. c #C28F5B",
"S. c #C39057",
"D. c #C1925B",
"F. c #CB965B",
"G. c #C19C57",
"H. c #C68E6A",
"J. c #C88D6D",
"K. c #C49562",
"L. c #CA9566",
"P. c #C39964",
"I. c #C89867",
"U. c #C0976C",
"Y. c #C7976B",
"T. c #D1996F",
"R. c #CB9070",
"E. c #C49B70",
"W. c #E6976D",
"Q. c #C6A578",
"!. c #9A9492",
"~. c #A19D9B",
"^. c #B4A585",
"/. c #BEB394",
"(. c #C09E85",
"). c #F0AE80",
"_. c #EBE4F2",
"`. c #F8F8F8",
/* pixels */
"- 4 Y 6   O > f v B B m : X , m c j f n Y U M b b U U n U M 9 ( ",
"2 j.(._ , B { t.n.Q.Q.b.w w w w w w w w w w w w w w B.N.V.m.m./.",
"$ 8.I.V o k D F D ~ w w ~.~.~.~.~.~.~.~.~.~.!.!.!.!.w w D.g.~ j.",
"8 -.K.` o l ] Z w w ~.~.~.~.~.~.~.~.~.~.!.!.!.!.!.!.p p w w & 3 ",
"* >.Z.J j W  .E w w w w ~.~.~.~.!.!.!.!.!.!.!.!.o.o.p p w w j u ",
"# #.F.u.b.X. .E w w o.o.q q w w w w q q o.o.o.o.o.o.w w w w < e ",
"= >.L.A.F.e.' H w w !.!.!.!.~.~.!.!.o.o.q q w w w w i i w w d 4 ",
"Z p.A.J h H ' H w w !.!.!.!.~.~.!.!.~.~.!.!.o.o.p p i i w w %.k.",
"-.a.z.R X k q q w w !.!.!.!.~.~.!.!.~.~.!.!.o.o.p p i i w w h.^.",
"F 1.H.t.^ ~ w w p p o.o.~.~.!.!.~.~.!.!.o.o.!.!.p p w w q q A Q ",
"S 1.R.J.L.e.w w q q p p o.o.o.o.~.~.!.!.o.o.!.!.i i w w u.4.* 5 ",
"] 9.J.z.} | 0 0 o.o.i i i i p p p p p p p p i i q q 0 0 u.a.Z Q ",
"&.,.l.! + f 0 0 !.!.!.!.!.!.!.!.!.!.!.!.!.!.p p i i 0 0 U.r.S.Q.",
"P 2.n./ 0 0 0 0 ~.~.!.!.!.!.!.!.!.!.!.!.o.o.p p i i 0 0 n.r.r.N.",
"A 4.0 0 G G F.F.0 0 ~.~.~.~.!.!.o.o.o.o.p p p p 0 0 G G w w 3.q.",
"$.5.0 0 I I I I I I 0 0 0 0 0 0 0 0 0 0 0 0 0 0 G G G G 0 0 [ ) ",
"2.s.0 0 I I ).).).).F.F.I I I I I I I I I I G G G G G G 0 0 K ) ",
"6.s.b.0.w w ).).).).).).).).).).L.L.I I G G G G G G G G 0 0 L ;.",
"s.s.b.0.w w ).).).).).).).).).).).).G G G G G G G G G G 0 0 [ :.",
"6.s.b.0.w w ).).).).).).).).).).).).T.T.G G G G G G G G w w [ q.",
"5.s.n.0.w w ).).0 0 ).).).).).).).).).).W.W.G G G G w w b.Z.J :.",
"s.d.b.7.0 0 ).).@.@.).).).).).).).).W.W.W.W.G G G G 0 0 b.S.K :.",
"6.s.b.t.` } 0 0 O.O.O.O.W.W.).).).).).).W.W.W.W.0 0 1 m 0.r.[ :.",
"6.d.b.t.{ B g v w w w w w w 0 0 0 0 0 0 0 0 0 0 u.9.1.0.b.u.| :.",
"6.G.b.7.` B > g 0 0 +.+.w w _._._._.0 0 _._.0 0 D.g.M.U.E.r.[ ;.",
"x 4.b.0.` B + f 0 0 `.`.w w `.`.`.`.0 0 _._.0 0 i.~ S { l.r.3.c.",
". $.n.y.` N & f 0 0 `.`.w w ).).).).w w _._.0 0 ` l o j l.F.S.C.",
"% ,.n.0.! B B V 0 0 +.+.w w ).).W.W.w w _._.0 0 } S * v b.Z.[ q.",
"> ..m.w.} <.I.r.] ] 0 0 *.*.w w w w 0 0 0 0 ; C } V s z S.v.< r ",
", 0.m.8.V ] K.u.} ] 0 0 =.=.=.=.=.=.*.*.0 0 h R } N h z S.v.< r ",
", 0.M.~ f B b.y.] ] y.b.0 0 a a a a a a 0 0 + B { D D D g.M.7 t ",
"; 0.f.S + v b.y.] ] y.g.g.P.0 0 0 0 0 0 D f + v { } ] ] P.M.n y "
};
