/* XPM */
static char *_40a83038d95446bcd2468122037ba47qP3x9sdZNrC7Cbof[] = {
/* columns rows colors chars-per-pixel */
"32 32 166 2 ",
"   c #613B0E",
".  c #664013",
"X  c #6E481B",
"o  c #6E4B11",
"O  c #774F1C",
"+  c #6F5411",
"@  c #6C5219",
"#  c #7B5610",
"$  c #7C5E1B",
"%  c #78591B",
"&  c #564927",
"*  c #784F24",
"=  c #7B5226",
"-  c #7E5529",
";  c #7E592D",
":  c #665937",
">  c #685338",
",  c #6D5F3D",
"<  c #635332",
"1  c #775539",
"2  c #7B5B34",
"3  c #7A6027",
"4  c #7E6837",
"5  c #3A3A50",
"6  c #4F4B4B",
"7  c #46465E",
"8  c #664F4A",
"9  c #65574E",
"0  c #695749",
"q  c #6A584A",
"w  c #675950",
"e  c #705953",
"r  c #6B6362",
"t  c #756E6E",
"y  c #6C7865",
"u  c #84521F",
"i  c #84671B",
"p  c #825C2D",
"a  c #865421",
"s  c #835D31",
"d  c #866329",
"f  c #93622B",
"g  c #866033",
"h  c #8C6535",
"j  c #826C36",
"k  c #82623D",
"l  c #8C6639",
"z  c #866E3D",
"x  c #926B3D",
"c  c #9A6C39",
"v  c #937432",
"b  c #9C7A34",
"n  c #94753B",
"m  c #9B753C",
"M  c #AB6736",
"N  c #A5723C",
"B  c #AA773E",
"V  c #AB783F",
"C  c #A17C36",
"Z  c #B37B3F",
"A  c #856A40",
"S  c #896C44",
"D  c #89674B",
"F  c #8A684F",
"G  c #9C6941",
"H  c #81714F",
"J  c #9D7445",
"K  c #9C7B42",
"L  c #9D7448",
"P  c #837657",
"I  c #957D51",
"U  c #947156",
"Y  c #A67C45",
"T  c #AD7A42",
"R  c #A37C4D",
"E  c #A87E49",
"W  c #A17341",
"Q  c #B27F46",
"!  c #A77C51",
"~  c #857D7C",
"^  c #CB794D",
"/  c #4A8E46",
"(  c #568D61",
")  c #9C803E",
"_  c #A88B3F",
"`  c #A8833D",
"'  c #D98232",
"]  c #E6AD38",
"[  c #9F8143",
"{  c #9D8249",
"}  c #9A8256",
"|  c #9D8559",
" . c #A18343",
".. c #AF8945",
"X. c #AC834D",
"o. c #A98A4D",
"O. c #B28B46",
"+. c #B28E4C",
"@. c #B58249",
"#. c #B09247",
"$. c #B7924D",
"%. c #BA944E",
"&. c #A48950",
"*. c #AF8E52",
"=. c #AE8459",
"-. c #A48A5D",
";. c #AF895C",
":. c #A88456",
">. c #B58A55",
",. c #BD8A53",
"<. c #B4855C",
"1. c #B28B5A",
"2. c #BF8F5E",
"3. c #AE9151",
"4. c #B59355",
"5. c #BB9651",
"6. c #BC9954",
"7. c #B4975F",
"8. c #BB935B",
"9. c #BE9E5A",
"0. c #BEA05A",
"q. c #9E8C6D",
"w. c #9E906C",
"e. c #B78E63",
"r. c #BF8963",
"t. c #BC8260",
"y. c #B79164",
"u. c #BB9365",
"i. c #B79A62",
"p. c #BD9469",
"a. c #B59C6C",
"s. c #B4946B",
"d. c #B69B72",
"f. c #BB9F78",
"g. c #BB9D77",
"h. c #B9A46D",
"j. c #BBA177",
"k. c #C28F56",
"l. c #C38F5D",
"z. c #C39057",
"x. c #C2925A",
"c. c #CC9659",
"v. c #C19C57",
"b. c #C08F66",
"n. c #C68E6A",
"m. c #C88D6D",
"M. c #CB9466",
"N. c #C19963",
"B. c #C89867",
"V. c #C2956B",
"C. c #CD956B",
"Z. c #C29261",
"A. c #D0986D",
"S. c #CB9070",
"D. c #E6976D",
"F. c #C4AC7F",
"G. c #9A9492",
"H. c #A19D9B",
"J. c #B4A585",
"K. c #BEB394",
"L. c #C09E85",
"P. c #F0AE80",
"I. c #B2AECB",
"U. c #C6BDD5",
"Y. c #EBE4F2",
"T. c #F8F8F8",
/* pixels */
"& , F 1   X = p h x x l * . - l g s p k D S z j j A S k S z 4 P ",
": q.L.U - x R ;.7 7 7 7 7 7 7 7 7 7 7 7 7 7 7 7 h.j.f.d.g.a.a.K.",
"@ &.B.c o d 7 7 H.H.H.H.H.H.H.H.H.H.G.G.G.G.G.G.7 7 X.>.x.8.K q.",
"3 { Z.W 7 7 H.H.H.H.H.H.H.H.H.H.G.G.G.G.G.G.G.G.G.G.7 7 8.4.% > ",
"$  .k.N 7 7 7 7 H.H.H.H.G.G.G.G.G.G.G.G.G.G.G.G.7 7 7 7 b.1.s e ",
"+ ) c.,.7 7 t t 7 7 6 6 7 7 6 6 7 7 6 6 7 7 6 6 t t 7 7 V.y.; 8 ",
"%  .M.l.7 7 t t ~ ~ H.H.G.G.H.H.G.G.H.H.G.G.~ ~ t t 7 7 %.#.i , ",
"v 3.l.N 7 7 t t G.G.H.H.G.G.H.H.G.G.H.H.G.G.G.G.t t 7 7 O.#._ w.",
"[ 4.r.G 7 7 t t G.G.H.H.H.H.H.H.H.H.H.H.G.G.G.G.t t 7 7 >.9.0.J.",
"m o.n.<.6 6 t t G.G.H.H.G.G.H.H.G.G.H.H.G.G.G.G.t t 6 6 8.6.b H ",
"n o.S.m.7 7 r r G.G.H.H.G.G.H.H.G.G.H.H.G.G.G.G.r r 7 7 2.+.$ < ",
" .*.m.t.5 5 t t r r t t t t t t t t t t t t r r t t 5 5 2.4.v H ",
"` ..e.J 5 5 t t ~ ~ ~ ~ ~ ~ ~ ~ ~ ~ ~ ~ ~ ~ ~ ~ t t 5 5 V.,.z.F.",
"C O.p.L 5 5 ~ ~ G.G.G.G.G.G.G.G.G.G.G.G.G.G.G.G.~ ~ 5 5 p.,.,.d.",
"b +.7 7 c.c.5 5 ~ ~ G.G.H.H.H.H.G.G.H.H.G.G.~ ~ 5 5 M M 7 7 @.-.",
"` $.5 5 Z Z M M 5 5 5 5 5 5 5 5 5 5 5 5 5 5 5 5 Z Z M M 5 5 T I ",
"O.5.5 5 M M M M c.c.C.C.C.A.C.C.C.M.Z Z c.c.c.c.Z Z M M 5 5 B I ",
"%.5.5 5 M M M M P.P.P.P.P.P.P.P.P.P.Z Z A.C.C.M.Z Z M M 5 5 V } ",
"5.5.5 5 M M M.M.P.P.P.P.P.P.c.c.Z Z C.A.P.P.P.P.C.C.M M 5 5 T | ",
"%.5.7 7 D.D.P.P.P.P.P.P.P.P.P.P.P.P.P.P.P.P.P.P.P.P.D.D.7 7 T -.",
"$.5.7 7 P.P.P.P.P.P.5 5 P.P.P.P.P.P.P.P.5 5 P.P.P.P.P.P.7 7 N | ",
"5.6.u.=.7 7 D.D.P.P.( ( P.P.P.P.P.P.P.P.( ( P.P.D.D.7 7 u.z.B | ",
"%.5.u.<.7 7 D.D.^ ^ ^ ^ D.D.D.D.D.D.D.D.^ ^ ^ ^ D.D.7 7 =.,.T | ",
"%.6.5 5 Y.Y.7 7 7 7 7 7 7 7 7 7 7 7 7 7 7 7 7 7 7 7 Y.Y.7 7 Q | ",
"%.v.5 5 T.T.Y.Y.Y.Y.Y.Y.Y.Y.I.I./ / Y.Y.Y.Y.Y.Y.Y.Y.T.T.7 7 T } ",
"7 7 P.P.5 5 T.T.T.T.T.T.T.T.U.U.T.T.T.T.T.T.T.T.T.T.5 5 P.P.7 7 ",
"7 7 P.P.D.D.5 5 7 7 Y.Y.Y.Y.I.I./ / Y.Y.Y.Y.7 7 5 5 D.D.P.P.7 7 ",
"# ..7 7 5 5 5 5 ' ' 7 7 7 7 7 7 7 7 7 7 7 7 ' ' 5 5 5 5 7 7 T -.",
"= ! a.-.Y X.5 5 ' ' ] ] ] ] ] ] ] ] ] ] ] ] ' ' 5 5 u f z.y.; q ",
"- =.a.:.c Y 5 5 ' ' ] ] ] ] ] ] ] ] ] ] ] ] ' ' 5 5 a f z.y.; 0 ",
"= =.i.K p x 5 5 y y y y 5 5 5 5 5 5 5 5 y y y y 5 5 m m 8.s.2 9 ",
"* =.7.n O h u.1.5 5 5 5 8.N.>.J X.u.1.Y 5 5 5 5 R E Y Y N.s.k w "
};
