/* XPM */
static char *aef5756652f3462e9314af34c8216b1abSEm6irSfhwSeAxh[] = {
/* columns rows colors chars-per-pixel */
"32 32 167 2 ",
"   c #613B0E",
".  c #664013",
"X  c #6E4B11",
"o  c #6E481B",
"O  c #774F1C",
"+  c #6F5411",
"@  c #6C5219",
"#  c #7B5610",
"$  c #715118",
"%  c #775B1A",
"&  c #7C5E1B",
"*  c #79561C",
"=  c #564927",
"-  c #754F22",
";  c #7A4F25",
":  c #7B5226",
">  c #7E5529",
",  c #7E592D",
"<  c #665937",
"1  c #685338",
"2  c #6D5F3D",
"3  c #635332",
"4  c #775539",
"5  c #7B5B34",
"6  c #7A6027",
"7  c #7E6837",
"8  c #3A3A50",
"9  c #4F4B4B",
"0  c #46465E",
"q  c #664F4A",
"w  c #65574E",
"e  c #695749",
"r  c #6A584A",
"t  c #675950",
"y  c #705953",
"u  c #6B6362",
"i  c #756E6E",
"p  c #6C7865",
"a  c #84521F",
"s  c #84671B",
"d  c #865421",
"f  c #825C2D",
"g  c #835D31",
"h  c #866329",
"j  c #93622B",
"k  c #9E6B2D",
"l  c #866033",
"z  c #8C6536",
"x  c #826C36",
"c  c #82623D",
"v  c #8C6639",
"b  c #866E3D",
"n  c #926B3D",
"m  c #9A6C39",
"M  c #937432",
"N  c #9C7A34",
"B  c #94753B",
"V  c #987A3C",
"C  c #9D733C",
"Z  c #AB6736",
"A  c #A5723C",
"S  c #AA773E",
"D  c #AB783F",
"F  c #A17C36",
"G  c #B37B3F",
"H  c #856A40",
"J  c #896C44",
"K  c #89674B",
"L  c #8A684F",
"P  c #9C6941",
"I  c #81714F",
"U  c #9D7443",
"Y  c #9C7B42",
"T  c #9D7448",
"R  c #837657",
"E  c #957D51",
"W  c #947156",
"Q  c #A67C45",
"!  c #AD7A42",
"~  c #A37C4D",
"^  c #A87E49",
"/  c #A17341",
"(  c #B27F46",
")  c #A77C51",
"_  c #857D7C",
"`  c #9C803E",
"'  c #A6813B",
"]  c #AA853F",
"[  c #A88B3F",
"{  c #D98232",
"}  c #E6AD38",
"|  c #9F8143",
" . c #9D8249",
".. c #9A8256",
"X. c #9D8559",
"o. c #A18343",
"O. c #AF8945",
"+. c #AC834D",
"@. c #A98A4D",
"#. c #B28B46",
"$. c #B28E4C",
"%. c #B58249",
"&. c #B09247",
"*. c #B7924D",
"=. c #BA944E",
"-. c #A48950",
";. c #AF8E52",
":. c #AE8459",
">. c #A48A5D",
",. c #AF895C",
"<. c #A88456",
"1. c #B48A55",
"2. c #BD8A53",
"3. c #B4855C",
"4. c #B28B5A",
"5. c #BF8F5E",
"6. c #AE9151",
"7. c #B59355",
"8. c #BB9651",
"9. c #BC9954",
"0. c #B4975F",
"q. c #BB935B",
"w. c #BE9E5A",
"e. c #BEA05A",
"r. c #9E8C6D",
"t. c #9E906C",
"y. c #BC8260",
"u. c #B78E63",
"i. c #BF8963",
"p. c #B79164",
"a. c #BB9365",
"s. c #B79A62",
"d. c #B4946B",
"f. c #BD9469",
"g. c #B59C6C",
"h. c #B69B72",
"j. c #BB9D77",
"k. c #BB9F78",
"l. c #B9A46D",
"z. c #BBA177",
"x. c #C28F57",
"c. c #C38F5D",
"v. c #C39057",
"b. c #C19C57",
"n. c #C2925A",
"m. c #CA975E",
"M. c #C08F66",
"N. c #C68E6A",
"B. c #C88D6D",
"V. c #CB9765",
"C. c #C19963",
"Z. c #C89867",
"A. c #C2956B",
"S. c #CF966C",
"D. c #C29261",
"F. c #D0986D",
"G. c #CB9070",
"H. c #E6976D",
"J. c #C4AC7F",
"K. c #9A9492",
"L. c #A19D9B",
"P. c #B4A585",
"I. c #BEB394",
"U. c #C09E85",
"Y. c #F0AE80",
"T. c #EBE4F2",
"R. c #F8F8F8",
/* pixels */
"= 2 L 4   o : f z n n v - . > v l g f c K J b x x H J c J b 7 R ",
"< r.U.W > n ~ ,.0 0 0 0 0 0 0 0 0 0 0 0 0 0 0 0 l.z.k.h.j.g.g.I.",
"@ -.Z.m X h 0 0 L.L.L.L.L.L.L.L.L.L.K.K.K.K.K.K.0 0 +.1.n.q.Y r.",
"6  .D./ 0 0 L.L.L.L.L.L.L.L.L.L.K.K.K.K.K.K.K.K.K.K.0 0 q.7.* 1 ",
"& o.x.A 0 0 0 0 L.L.L.L.K.K.K.K.K.K.K.K.K.K.K.K.0 0 0 0 M.4.g y ",
"+ ` m.2.0 0 i i 0 0 9 9 0 0 9 9 0 0 9 9 0 0 9 9 i i 0 0 A.p., q ",
"% o.V.c.0 0 i i _ _ L.L.K.K.L.L.K.K.L.L.K.K._ _ i i 0 0 =.&.s 2 ",
"M 6.c.A 0 0 i i K.K.L.L.K.K.L.L.K.K.L.L.K.K.K.K.i i 0 0 #.&.[ t.",
"| 7.i.P 0 0 i i K.K.L.L.K.K.L.L.K.K.L.L.K.K.K.K.i i 0 0 1.w.e.P.",
"V @.N.3.9 9 i i K.K.L.L.K.K.L.L.K.K.L.L.K.K.K.K.i i 9 9 q.9.N I ",
"B @.G.B.0 0 u u K.K.L.L.K.K.L.L.K.K.L.L.K.K.K.K.u u 0 0 5.$.& 3 ",
"o.;.B.y.8 8 i i u u i i i i i i i i i i i i u u i i 8 8 5.7.M I ",
"] O.u.T 8 8 i i _ _ _ _ _ _ _ _ _ _ _ _ _ _ _ _ i i 8 8 A.2.v.J.",
"F #.f.T 8 8 _ _ K.K.K.K.K.K.K.K.K.K.K.K.K.K.K.K._ _ 8 8 f.2.2.h.",
"N $.0 0 Z Z 8 8 _ _ K.K.L.L.L.L.K.K.L.L.K.K._ _ 8 8 Z Z 0 0 %.>.",
"' *.8 8 Z Z G G 8 8 8 8 8 8 8 8 8 8 8 8 8 8 8 8 G G Z Z 8 8 ! E ",
"#.8.8 8 Z Z G G G G G G G G G G G G G G F.S.G G G G Z Z 8 8 S E ",
"=.8.8 8 Z Z Z Z G G G G G G G G G G G G G G G G Z Z Z Z 8 8 D ..",
"8.8.8 8 Z Z Z Z Z Z Z Z Z Z Z Z Z Z Z Z Z Z Z Z Z Z Z Z 8 8 ! X.",
"=.8.0 0 Z Z Z Z Z Z Z Z Z Z Z Z Z Z Z Z Z Z Z Z Z Z Z Z 0 0 ! >.",
"*.8.f.:.0 0 Z Z Z Z Z Z Z Z Z Z Z Z Z Z Z Z Z Z Z Z 0 0 a.x.A X.",
"8.9.a.:.U 1.8 8 Z Z Z Z Z Z Z Z Z Z Z Z Z Z Z Z 8 8 $ z a.v.S X.",
"=.8.a.3.8 8 T.T.8 8 8 8 8 8 8 8 8 8 8 8 8 8 8 8 T.T.8 8 :.2.! X.",
"=.9.8 8 T.T.T.T.T.T.T.T.T.T.T.T.T.T.T.T.T.T.T.T.T.T.T.T.0 0 ( X.",
"=.b.8 8 T.T.T.T.R.R.R.R.R.R.R.R.R.R.R.R.R.R.R.R.T.T.T.T.0 0 ! ..",
"8 8 Y.Y.8 8 8 8 R.R.R.R.R.R.R.R.R.R.R.R.R.R.R.R.8 8 8 8 Y.Y.0 0 ",
"8 8 Y.Y.H.H.8 8 0 0 T.T.T.T.T.T.T.T.T.T.T.T.0 0 8 8 H.H.Y.Y.0 0 ",
"# O.8 8 8 8 8 8 { { 0 0 0 0 0 0 0 0 0 0 0 0 { { 8 8 8 8 8 8 ! >.",
": ) g.>.Q +.8 8 { { } } } } } } } } k k { { { { 8 8 a j v.p., r ",
"> :.g.<.m Q 8 8 { { } } } } } } k k { { { { { { 8 8 d j v.p., e ",
": :.s.Y f n 8 8 p p p p 8 8 k k 8 8 8 8 p p p p 8 8 C C q.d.5 w ",
"; :.0.B O z a.4.8 8 8 8 q.C.1.U +.a.4.Q 8 8 8 8 ~ ^ Q Q C.d.c t "
};
