/* XPM */
static char *result[] = {
/* columns rows colors chars-per-pixel */
"32 32 56 1 ",
"  c black",
". c #1C1B05",
"X c #1D1C05",
"o c #1E1D05",
"O c #1F1E06",
"+ c #1F1F06",
"@ c #39370A",
"# c #3B390A",
"$ c #C9C111",
"% c #CAC110",
"& c #CAC210",
"* c #CAC211",
"= c #EFE40C",
"- c #F0E50F",
"; c #F0E60F",
": c #F1E610",
"> c #C7C023",
", c #C8C123",
"< c #DFD728",
"1 c #DAD33B",
"2 c #DDD639",
"3 c #DED739",
"4 c #DFD739",
"5 c #DED63A",
"6 c #E0D828",
"7 c #E1D828",
"8 c #E2DA28",
"9 c #E4DC28",
"0 c #E5DC28",
"q c #E6DD28",
"w c #E6DD29",
"e c #F6EC25",
"r c #F3EA2B",
"t c #F8EE29",
"y c #FBF125",
"u c #FDF328",
"i c #FDF329",
"p c #FBF12C",
"a c #FBF22D",
"s c #FBF12E",
"d c #FAF02F",
"f c #FBF12F",
"g c #FCF22C",
"h c #FEF42C",
"j c #FFF52C",
"k c #FEF42D",
"l c #FFF52D",
"z c #FFF62D",
"x c #FFF72D",
"c c #FFF52E",
"v c #FFF62E",
"b c #FFF82E",
"n c #FFF92E",
"m c #F5ED30",
"M c #F6ED30",
"N c None",
/* pixels */
"NNNNNNNNNNNN        NNNNNNNNNNNN",
"NNNNNNNNNNNNooooooooNNNNNNNNNNNN",
"NNNNNNNN   X>7<<<<7>X   NNNNNNNN",
"NNNNNNNNO+o#wnxxxxnw#o+ONNNNNNNN",
"NNNNNN .>869gzllllzg968>. NNNNNN",
"NNNNNN.@0nxvfddddddfvxn0@.NNNNNN",
"NNNN .,qplzf41111114fzlpq,. NNNN",
"NNNN.@qblkfM31111113Mfklbq@.NNNN",
"NN O>0plzf35MddddddM53fzlp0>O NN",
"NN +8nlkfm54szllllzs42rthln8+ NN",
"NN o6xzf35Mskllllllkfr$*tvx6o NN",
"NNX#9vfM54szllllllllzt&%eiz9#XNN",
" o>wgf43Mskllllllllllhte-:iaw>o ",
" o7nzd11dzllllllllllllvi==uln7o ",
" o<xld11dllllllllllllllu==ulx<o ",
" o<xld11dllllllllllllllu==ulx<o ",
" o<xld11dllllllllllllllu==ulx<o ",
" o<xld11dllllllllllllllu==ulx<o ",
" o7nzd11dzllllllllllllci==uln7o ",
" o>wgf43Msklllllllllljiy;:iaw>o ",
"NNX#9vfM54fzllllllllci:;yiz9#XNN",
"NN o6xzf32rthlllllljiy;:icx6o NN",
"NN +8nlkfr$&tvllllci:;yijln8+ NN",
"NN O>0plzt*%eiuuuuiy;:iclp0>O NN",
"NNNN.@qblhte-======;yijlbq@.NNNN",
"NNNN .,qplvi:======:iclpq,. NNNN",
"NNNNNN.@0nxziuuuuuuizxn0@.NNNNNN",
"NNNNNN .>869alllllla968>. NNNNNN",
"NNNNNNNNO+o#wnxxxxnw#o+ONNNNNNNN",
"NNNNNNNN   X>7<<<<7>X   NNNNNNNN",
"NNNNNNNNNNNNooooooooNNNNNNNNNNNN",
"NNNNNNNNNNNN        NNNNNNNNNNNN"
};
