/* XPM */
static char *ecfbc10068f0481ff1ba79f17eea99361Xvc025nx5vczIHj[] = {
/* columns rows colors chars-per-pixel */
"32 32 217 2 ",
"   c #22201F",
".  c #232325",
"X  c #2A2A2C",
"o  c #2B2722",
"O  c #352E26",
"+  c #383129",
"@  c #2B2D32",
"#  c #2F3136",
"$  c #313235",
"%  c #33353A",
"&  c #36383E",
"*  c #3C3B3D",
"=  c #3A353B",
"-  c #533917",
";  c #43311D",
":  c #643D17",
">  c #463628",
",  c #4C3C30",
"<  c #684515",
"1  c #774E1B",
"2  c #6E5315",
"3  c #7B5C1D",
"4  c #795519",
"5  c #76510B",
"6  c #57452B",
"7  c #4C433A",
"8  c #594736",
"9  c #684A2A",
"0  c #774F25",
"q  c #7D5325",
"w  c #7E5529",
"e  c #7E592D",
"r  c #795925",
"t  c #664B35",
"y  c #685339",
"u  c #695838",
"i  c #7C5B3A",
"p  c #785634",
"a  c #754F2E",
"s  c #7D612B",
"d  c #7D6537",
"f  c #3B3D44",
"g  c #513242",
"h  c #613A42",
"j  c #3F4148",
"k  c #3E4047",
"l  c #43454C",
"z  c #45484F",
"x  c #48444A",
"c  c #464951",
"v  c #4B4D56",
"b  c #4C4F58",
"n  c #464750",
"m  c #4D5056",
"M  c #4D5059",
"N  c #52545C",
"B  c #55585E",
"V  c #59404E",
"C  c #694946",
"Z  c #685749",
"A  c #6A4955",
"S  c #724B5C",
"D  c #6C5952",
"F  c #575B64",
"G  c #5C6265",
"H  c #63666A",
"J  c #696C75",
"K  c #70727B",
"L  c #85531D",
"P  c #88641D",
"I  c #845C2B",
"U  c #895525",
"Y  c #845C31",
"T  c #8A5C37",
"R  c #915E30",
"E  c #934E27",
"W  c #AB5E36",
"Q  c #896228",
"!  c #956429",
"~  c #8C6434",
"^  c #8B6A35",
"/  c #84633D",
"(  c #8D6339",
")  c #846938",
"_  c #946C3C",
"`  c #9B6C3B",
"'  c #926636",
"]  c #94743C",
"[  c #9D733C",
"{  c #977835",
"}  c #95702A",
"|  c #A56C3A",
" . c #A4773A",
".. c #B7693A",
"X. c #90345A",
"o. c #95595C",
"O. c #8A6B44",
"+. c #896648",
"@. c #986C45",
"#. c #9C7343",
"$. c #977943",
"%. c #9C7B44",
"&. c #94734A",
"*. c #9D7449",
"=. c #997848",
"-. c #9C6759",
";. c #837657",
":. c #937D53",
">. c #987657",
",. c #81714F",
"<. c #AA6944",
"1. c #A27545",
"2. c #A57A45",
"3. c #AA7A44",
"4. c #A57D4C",
"5. c #AA7B4B",
"6. c #A7744A",
"7. c #B17A48",
"8. c #A47353",
"9. c #AD7A53",
"0. c #A67C57",
"q. c #B67857",
"w. c #96567A",
"e. c #AB496C",
"r. c #B35675",
"t. c #AA7762",
"y. c #C5734A",
"u. c #A8853E",
"i. c #D49438",
"p. c #EAB73A",
"a. c #F3D33B",
"s. c #9E8144",
"d. c #9D8559",
"f. c #9A8256",
"g. c #AC824D",
"h. c #A98548",
"j. c #B38D4B",
"k. c #B28647",
"l. c #BA944E",
"z. c #B3924A",
"x. c #A58454",
"c. c #AC8455",
"v. c #AE8459",
"b. c #A68A59",
"n. c #BB8753",
"m. c #B48B55",
"M. c #BB8A53",
"N. c #B4845B",
"B. c #B38B5B",
"V. c #BC8E5B",
"C. c #B28454",
"Z. c #BB9651",
"A. c #BB935C",
"S. c #B99757",
"D. c #BEA05A",
"F. c #9E8C6D",
"G. c #9E906C",
"H. c #B58B63",
"J. c #BB8865",
"K. c #B79164",
"L. c #BB9365",
"P. c #BD9469",
"I. c #B59C6C",
"U. c #B69869",
"Y. c #B99C75",
"T. c #B58C6F",
"R. c #B9A36D",
"E. c #BDA478",
"W. c #C1825C",
"Q. c #C38D5C",
"!. c #C1925A",
"~. c #C49559",
"^. c #C48D65",
"/. c #C68C68",
"(. c #C39964",
"). c #C49667",
"_. c #C78D71",
"`. c #C6A578",
"'. c #547B94",
"]. c #7A7E81",
"[. c #807E83",
"{. c #A86787",
"}. c #B9738B",
"|. c #B77090",
" X c #CD7996",
".X c #7C8285",
"XX c #668DA5",
"oX c #7595A5",
"OX c #7DA8C2",
"+X c #8B8D91",
"@X c #96989C",
"#X c #8B8E91",
"$X c #B9AC8D",
"%X c #9D9DA2",
"&X c #90A5B0",
"*X c #A9AEB0",
"=X c #AFB0B2",
"-X c #C09E82",
";X c #DE89A8",
":X c #E788A9",
">X c #EB8EB1",
",X c #F496BC",
"<X c #F697BC",
"1X c #EE91B6",
"2X c #BEBFC0",
"3X c #F89DC2",
"4X c #BACDD9",
"5X c #B8D5E4",
"6X c #C4C7CB",
"7X c #D2D4D5",
"8X c #CDD2D3",
"9X c #D5E2E7",
"0X c #E8EAEA",
"qX c #F0EFEF",
"wX c #FEFFFE",
"eX c #F4F8F9",
"rX c #E8F3F7",
/* pixels */
"6 u +.p : 1 w T ( _ _ ( 0 < w ( Y Y I / +.O.) ) ) O.O./ +.) d ;.",
"u G.T.-.Y _ 8.q.P.`.`.L.@.0 *.).K.c.c.Y.-XY.I.R.R.E.Y.Y.Y.I.I.$X",
"2 x.^.` E W  .<.#.%.C.m.%.^ $.x.x.^ ] B.J.g.h.j.Z.m.g.m.!.S.%.F.",
"s s.^.1.! p.p...U I 1.x.&.&.=.=.@.s Q C.J.3.3.j.Z.m.2.2.A.m.4 y ",
"3 5.W.<.i.a.i.W T T &.>.>.0.H.T.&.O.O.J._.9.9.9.N.N.8.9.^.B.Y D ",
"2 s.Q.y.W.y.<.+.i i 0.T.@.p +.>.t 8 9 +.t.q.6.R q ( 8.6.).K.e Z ",
"3 2.^.W.^.q.7.| U L 7.n.R > * f f f f $ O _  .P L !  . .l.z.P u ",
"{ c.Q.<.U | 3.| L U 3.7.I * F M M M b f . ^  .! 4 Q 2.k.k.z.u.G.",
"s.S.J.@.< Q $.] r r $.%.0 $ z f f f f #   / 2.^ w T 6.g.m.S.D.$X",
"] h.^.N.%.%.$.] r 1 d u 7 % X & c z z l & 7 y a w ( 1.2.A.S.{ ;.",
"] h._._.).n.3.| 0 , x f $ . . z b b b l @ % z x , t 8.5.V.j.3 y ",
"h.m._.J.5.7.6.t 7 v b z B H H m v v v c z % @ c b x 8 *.V.Z.} ,.",
"u.k.H.*.1 w 8 v J F c %X0XeXqX2XH z F &X7X7X@Xm v b c 7 b.n.!.`.",
" .j.P.*.q > z K J c .XeXwXwXwXwX7XH oXXXrXwXwX*Xc v v c 7 5.M.Y.",
"{ j.P.*.- & F F M j *XwXwXwXwXeXeX=X4X4XeXwXwX9Xm v v v l y k.b.",
"u.z.P.O.O v N b b l +XwXwXwX9X&XOX*XqXwXwXwXwX6Xz v v v v * ~ :.",
"k.l.P.i & v v j f c m 6XwXwX5X'.XXG =XeXwXwX7XH c v j v b l 6 :.",
"l.Z.K.t f b z # & b c m @X8X8X*XG l c K #X].N c v j f v v c > :.",
"Z.Z.K.6 l b v c % c b v z v v c c v v c c c v v f % c v v c + :.",
"l.Z.K.6 k b v b z % j c v v v b v v v b b v z & f c v v v c + :.",
"z.Z.P.y % b v v b l F J N c n c c c c z f & f z v v v v v k > f.",
"Z.Z.K.+.X c v v v v F 4X6X=X@X#X+X#X%X[.f v v v v v v v v # 9 d.",
"l.Z.K.v.> & v v v b n V w.{.{.{.{.|.|.S x v b v v v v v f + ` d.",
"l.Z.K.N./ o f v b v b l g X.X.e.e.e.e.r.{.S l v v v v j X i 7.d.",
"l.~.K.c.1.9 . f c v v v z g {.;X>X>X:X>X<X;XA c b c f X Z n.3.f.",
"} j.P.v.1._ - o $ l c v b v v A  X<X<X,X,X3X}.c z & X 8 B.M.k.U.",
"5 u.P.B.1.' 1 0 , X % f l c v c }.<X<X,X,X<X}.= @ O - Y H.~.!.E.",
"5 k.P.v.%._ _ ` 4.+.7 X @ # & & V }.>X1X1X Xh O y ^ 3 ( K.!.3.b.",
"q 4.U.b.3.g.(.m.2.2.m.*.9 ; + + O > C o.-.a : T 5.` L ! !.K.e Z ",
"w v.I.x.` 2.(.V.3.2.V.V.[ L I #._ _ #.#.1.R U @.5.' U ! !.K.e Z ",
"w v.U.%.I _ L.B.2.2.B.L.L.m.4.4.c.B.m.2. .Q 1 ' 4.[ [ [ A.U.p Z ",
"0 v.A.] 1 ^ L.B.2.2.B.A.A.(.m.%.g.L.B.2.[ I 1 ~ 4.4.2.2.(.U./ D "
};
