/* XPM */
static char *_056659a93054dafb5f56ddefa7d9a442foX8Ugr7rdxrAgV[] = {
/* columns rows colors chars-per-pixel */
"32 32 73 1 ",
"  c #7C3618",
". c #7F3819",
"X c #853B1A",
"o c #8D3E1B",
"O c #913F1B",
"+ c #8D3E21",
"@ c #8D3F2F",
"# c #933F23",
"$ c #873E38",
"% c #94411C",
"& c #9C431C",
"* c #A2461D",
"= c #A8471C",
"- c #A6481E",
"; c #AB491E",
": c #B24C1E",
"> c #B64D1E",
", c #B84D1E",
"< c #944021",
"1 c #974220",
"2 c #954225",
"3 c #9B4220",
"4 c #9D4320",
"5 c #9B4420",
"6 c #9A4325",
"7 c #9E4526",
"8 c #954229",
"9 c #97422E",
"0 c #9A432B",
"q c #9D442A",
"w c #8E4136",
"e c #904032",
"r c #964333",
"t c #994437",
"y c #9C4634",
"u c #95423B",
"i c #91413D",
"p c #994438",
"a c #9F4638",
"s c #99443E",
"d c #9C463D",
"f c #A44721",
"g c #A24726",
"h c #A64725",
"j c #A84724",
"k c #A44920",
"l c #A74920",
"z c #A64824",
"x c #AB4B20",
"c c #AC4B20",
"v c #A0452F",
"b c #A7482E",
"n c #AD4B29",
"m c #A8482F",
"M c #B34E21",
"N c #B44D20",
"B c #B74E2B",
"V c #A24732",
"C c #A64831",
"Z c #A54834",
"A c #A94930",
"S c #AC4A30",
"D c #A04738",
"F c #A3483A",
"G c #A3493D",
"H c #A6493F",
"J c #AD4C3D",
"K c #934240",
"L c #984442",
"P c #9C4640",
"I c #984444",
"U c #A64A41",
"Y c #A14845",
/* pixels */
"xx&*&-*%c%;-&M%xl%-&M&--&&&%c%&%",
"*&%%&O&&&%%&o;%&-X*o&&O;&oO%%&& ",
":%:=&%=:%>*%&&*&>&=&=;%>;&*;%=*%",
"&&;%;o&&;%*%;%-%x*%;%:=*N%-f1N%*",
"o%*%&%O&%o*X;%&X;&o*X&&9Jr0sGh&&",
":;o>&*%;o;:%:=&%&*&:&;1u48Ciu0>&",
"%*o;%;%*o=&;&=;%%&M&*-2G&7eULz-&",
"o&%%o&%*&o%&%*;O%&*&&&&Faw@veb&o",
"&=*%O=*=;8B=qvjO%,&=;%*o#%=&&*;%",
":O;-o&&;9FtCPDH%*&*:%=%%%;%&;o;o",
"=.&=&X&*p6%zLIa&&o%=%&%&&&O=*%&o",
"&&&&:O;oZeSCamD:%=%*:%&&>&;*%>*=",
"o;&&&*&&5AA1q1A&*%*%c%**&&*%-;&x",
"O*%O*-oOo;*o&%&o%%o&&o*&%O%o&%%&",
"*%;%;&%%=;O*%:O:&&%;*&;o=%:&=&;%",
"o;*%&%-o;&&%;;%N&&%;%*&l-%&&&;&*",
"%&%%OO&o*o*%&*&=%o%&oO%-&*XOo==&",
":O*;%&%&&O;:&=*%;o;%&&>O*>&;%**o",
"%&;%;%&%=%*N%;%*-o:%=oN%=&=:%:=%",
"o&&%%&%o&o**o&%*=O*X&%*&%&%=%:%&",
"o=OOO>&&*%;&&&&&%&&&**&:O;%*%>&:",
"=o*o;&=%;%*Mo&o;o-o;*&l&**%x%;*&",
"&o&&&%%&;oO*&Xo*O&%&-o;%;o&*&%Oo",
"O=O;O&o*;o-&*%;=%&*%=O*o*o=O:O*o",
"-x%ywg9$Vo;*&;%;*%-&;&*&&%*%;%&O",
"*&8u0ruwK2%&o;%&;X*o&&O;&oO%%&& ",
":%AV&3pYu:*%%&*&>&=&=;%>;&*;%=*%",
"&&nsartqd1=%;%-%x*%;%:=*N%-*%N%*",
"o%*29%+&#+*X;%&X;&o*X&&&-%&%&=&&",
":;o>&*%;o;:%:=&%&*&:&;&*&&;oO%>&",
"%*o;%;%*o=*;&=;%%&M&*-%x&*%*%;-&",
"X&oOX%o&%Xo%O*;o%%*&%%%-%XX&X-&X"
};
