/* XPM */
static char *_25471a18f5448b9a3955d9a96b292baCVxVvXbUqolenS8c[] = {
/* columns rows colors chars-per-pixel */
"32 32 212 2 ",
"   c #613B0E",
".  c #76510B",
"X  c #654312",
"o  c #6E4C13",
"O  c #6E481B",
"+  c #764D1A",
"@  c #7A4E1B",
"#  c #724912",
"$  c #6E511A",
"%  c #6F5411",
"&  c #7C5511",
"*  c #74551D",
"=  c #7A521D",
"-  c #7B5B1D",
";  c #775B1A",
":  c #564927",
">  c #7D4F25",
",  c #764C25",
"<  c #7D5323",
"1  c #7B5B24",
"2  c #7E5529",
"3  c #7E5A2C",
"4  c #775124",
"5  c #665937",
"6  c #685338",
"7  c #6D5F3D",
"8  c #635332",
"9  c #775539",
"0  c #7B5B34",
"q  c #7A6027",
"w  c #7F612B",
"e  c #7E6837",
"r  c #664F4A",
"t  c #695749",
"y  c #68584C",
"u  c #675950",
"i  c #705953",
"p  c #854D1A",
"a  c #815816",
"s  c #82521F",
"d  c #8A521F",
"f  c #88641D",
"g  c #824D25",
"h  c #855523",
"j  c #8B5320",
"k  c #835927",
"l  c #855328",
"z  c #855C2A",
"x  c #895C2C",
"c  c #945E2C",
"v  c #825735",
"b  c #845C32",
"n  c #8C5C32",
"m  c #865B39",
"M  c #895B3B",
"N  c #945F37",
"B  c #8E6324",
"V  c #85642C",
"C  c #8B612E",
"Z  c #88652B",
"A  c #92632A",
"S  c #95702A",
"D  c #856332",
"F  c #8D6433",
"G  c #826C36",
"H  c #8D6D36",
"J  c #82623D",
"K  c #8D6439",
"L  c #866E3D",
"P  c #926534",
"I  c #9A6533",
"U  c #936B35",
"Y  c #986837",
"T  c #94633C",
"R  c #986739",
"E  c #956C3A",
"W  c #9A6D3B",
"Q  c #8F713B",
"!  c #937333",
"~  c #9C7A34",
"^  c #94743B",
"/  c #9C733D",
"(  c #9A7A3E",
")  c #A56D3A",
"_  c #A16936",
"`  c #A3713D",
"'  c #AA753E",
"]  c #A37A3D",
"[  c #AA7B3C",
"{  c #A17934",
"}  c #896C44",
"|  c #8A684F",
" . c #896744",
".. c #9B6A42",
"X. c #966B49",
"o. c #9C6E4C",
"O. c #926440",
"+. c #81714F",
"@. c #967443",
"#. c #9D7343",
"$. c #967842",
"%. c #9C7B44",
"&. c #9D7549",
"*. c #9C7E48",
"=. c #837657",
"-. c #957D51",
";. c #947156",
":. c #A36F44",
">. c #A27543",
",. c #AD7745",
"<. c #A47A45",
"1. c #AB7A43",
"2. c #A5724B",
"3. c #A9764C",
"4. c #A57B4A",
"5. c #AA7C4C",
"6. c #B17A46",
"7. c #B17D4C",
"8. c #A27453",
"9. c #A57B53",
"0. c #AE7B52",
"q. c #A67358",
"w. c #AB7D5D",
"e. c #A57A58",
"r. c #B27D57",
"t. c #9C803E",
"y. c #A7823C",
"u. c #AB823E",
"i. c #A88B3F",
"p. c #9E824A",
"a. c #9F8143",
"s. c #9A8256",
"d. c #9D8559",
"f. c #A28244",
"g. c #AF8945",
"h. c #A28148",
"j. c #AC834D",
"k. c #A9894E",
"l. c #AE8146",
"z. c #B08541",
"x. c #B28B46",
"c. c #B3834C",
"v. c #B38D4B",
"b. c #B09247",
"n. c #B7924D",
"m. c #BA944E",
"M. c #A58355",
"N. c #AD8453",
"B. c #AE8C53",
"V. c #AE8459",
"C. c #A48A5D",
"Z. c #AA8956",
"A. c #B28453",
"S. c #BB8654",
"D. c #B38A55",
"F. c #BD8B54",
"G. c #B3855B",
"H. c #B58C5A",
"J. c #BB8D5B",
"K. c #B8835B",
"L. c #AE9151",
"P. c #B59356",
"I. c #BB9452",
"U. c #BC9954",
"Y. c #B5965D",
"T. c #BB925D",
"R. c #BB9A5D",
"E. c #BEA05A",
"W. c #9E8C6D",
"Q. c #9E906C",
"!. c #AD8260",
"~. c #B48465",
"^. c #B68D63",
"/. c #BD8B63",
"(. c #BA8868",
"). c #AC9468",
"_. c #B79164",
"`. c #BC9363",
"'. c #BE9B62",
"]. c #BD946A",
"[. c #B59C6C",
"{. c #B69869",
"}. c #B69B72",
"|. c #BC9E76",
" X c #BB9F78",
".X c #BA9774",
"XX c #B9A36D",
"oX c #BEA679",
"OX c #BBA177",
"+X c #C18F56",
"@X c #C28E5B",
"#X c #C39057",
"$X c #C2935B",
"%X c #CA955F",
"&X c #C19B5B",
"*X c #C28F67",
"=X c #C68E6A",
"-X c #C88D6D",
";X c #C29462",
":X c #CA9766",
">X c #C39865",
",X c #C99867",
"<X c #C2956B",
"1X c #C29B6E",
"2X c #C38971",
"3X c #CB9070",
"4X c #C39972",
"5X c #C5A268",
"6X c #C6A578",
"7X c #B4A585",
"8X c #BEB394",
"9X c #C09E84",
/* pixels */
": 7 | 9   O 2 z K E E K 4 X 2 K D b z J | } L G G } } J } L e =.",
"5 W.9X;.2 E 4.V.].6X6X].@.4 &.1X_.M.N..X9X|.[.XXXXOX X}.|.[.[.8X",
"$ k.,XY o Z / ( ^ %.B.D.<.U <.'.B.U ^ H./.c.l.v.I.D.j.D.&XY.%.W.",
"q p.;X>.o F <.! * - h.R.Y.5XY.P.h.1 V A./.,.1.v.I.D.<.<.T.P.* 6 ",
"- f.#X` v X.8.o.v m V.].~.w.~.(.e.M O.~.2X0.0.0.G.K.8.0.*XH.b i ",
"% t.%XF.].w.8.o.v v !.].X.v e.4Xe., m w.(.r.3.n < T 2.2.<X_.3 r ",
"; f.:X@X%XS.,.) j d 6.F.I p _ +X6.j c +X&Xu.{ f a A ` [ m.b.f 7 ",
"! L.@X` j ) ,.) d j ' 7.I p c 6.) d c c.I.u.[ B & B <.z.x.b.i.Q.",
"a.P./...X V $.^ 1 1 $.*.w $ D *.H $ 1 N.D.<.<.F < n 2.j.D.R.E.7X",
"( k.*XK.*.%.$.^ 1 4 Q *.$.$.%.*.*.$.p.'.;X<.>.F k K o.<.T.U.~ =.",
"^ k.3X-X:XS.,.` x h Y ,.J.,XS.>.A.;X;XJ.H.N.5.n , M q.5.J.n.- 8 ",
"f.B.-X/.,.7.5.` P Y >.,.A.J.A.>.,.5.7.J.T.4.<...O.o.8.5.J.P.! +.",
"u.g.^.#.+ k 4.j.`.>X4.#.D.`.N.4./ < x j.T.0.2.A.T.D.h.4.<XF.#X6X",
"{ x.].&.< C <.<.A.T.5.4.A.T.D.4.U k F A.T.5.0.@X;XB.^ 9.].F.F.}.",
"~ v.].#.+ F 4.5.H.J.4.5.D.J.D.<.U k C j.D.A.2.x @ ^ Y.H.^.F.c.C.",
"y.n.].#.+ C #.5.`.T.4.4.H.H.N.<.W k x c.D.5.3.c @ U Y._.^.F.1.-.",
"x.I.].9.U P x U H.`.5.4.D.`.N.4./ < x D.D.5.3.Y h ^ B.].^.+X' -.",
"m.I._.V.4.W = x D.T.5.<.A.>XD.4.U = C A.P.A.:.h # U R.^.].+X' s.",
"I.I._.V.<.W = C J.`.4.#.<.4.4.>.#.W >.D.T.5.2.<.>.%.^ &.].F.1.d.",
"m.I._.V.#.W @ C H.T.j.#.x @ C #.N.>X>XT.P.3.2.J.>X<.* b ^.F.1.C.",
"n.I.].V.#./ k F `.H.5.4.P k F #.N.A.D.J.D.A.r.5.D.k.* b _.+X` d.",
"I.U._.V.#.D.`.`.>XH.H.H.U + F 4.U < x A.&X;X*X;X>Xh.* F _.#X' d.",
"m.I._.G.>.5.H.H.T.J.>X`./ < U 4.P = x j.T.J.K.J.T.%.1 K V.F.1.d.",
"m.U._.G.4.U x F A.T.`.T.D.N.5.>.4.A.D.j.<.R N ,.J.B.k.V._.F.6.d.",
"m.&X_.N.>.W < x J.T.H.T.>X>XD.>.N.>X`.<.U l g >.$XR.'.1X4XF.1.s.",
"S v._.V.>.W @ k `.>XT.T.4./ >.<.#.W W / / x l W A.%.^ 4.^.F.c.).",
". y.].H.>.P = k H.`.`.H.F + F <.U < k / ] n g Y >.Z o b ^.%X#XoX",
"& g.].V.#.W U W j.D.T.H.W < F <./ x F / / x g P 5.^ - K _.+X1.C.",
"< 9.{.Z.,.j.,XD.<.<.J.J.Y = Y >.` 5.<.,.3.x > T 5.Y s A #X_.3 t ",
"2 V.[.M.W <.>XJ.,.<.J.J./ = C <.>.>.,.>.:.n l ..5.P h A #X_.3 t ",
"2 V.'.%.k W `.H.<.<.H.`.`.D.5.4.N.H.D.<.] C + U 5./ / / T.{.0 y ",
"> V.Y.^ + F `.H.<.<.H.T.T.>XD.#.j.`.H.<./ x + F 4.5.<.<.;X{.J u "
};
