/* XPM */
static char *ae4959a9fc224e53c9659ce59fda10eaydVwoh99fPhAw3Qj[] = {
/* columns rows colors chars-per-pixel */
"32 32 212 2 ",
"   c None",
".  c #291D3D",
"X  c #2A1F3F",
"o  c #2A1F40",
"O  c #292240",
"+  c #292341",
"@  c #2C2241",
"#  c #2D2747",
"$  c #2F2747",
"%  c #2B2A48",
"&  c #2F2848",
"*  c #2E2949",
"=  c #2D2B4B",
"-  c #2D2D4D",
";  c #352F47",
":  c #312C4A",
">  c #302C4C",
",  c #332D4C",
"<  c #322F4D",
"1  c #342F4E",
"2  c #382F4C",
"3  c #3D354D",
"4  c #343251",
"5  c #373553",
"6  c #323555",
"7  c #383151",
"8  c #3B3754",
"9  c #3C3755",
"0  c #353858",
"q  c #3D3C59",
"w  c #403754",
"e  c #423A51",
"r  c #413957",
"t  c #403E5B",
"y  c #443C58",
"u  c #463D58",
"i  c #473E59",
"p  c #394263",
"a  c #3B4464",
"s  c #48435B",
"d  c #414260",
"f  c #474561",
"g  c #454462",
"h  c #484562",
"j  c #4F4761",
"k  c #484764",
"l  c #474864",
"z  c #474866",
"x  c #4A4966",
"c  c #4B4A66",
"v  c #4D4B67",
"b  c #4C4C66",
"n  c #424868",
"m  c #474968",
"M  c #454C6B",
"N  c #464D6E",
"B  c #4E4B68",
"V  c #4A4D6A",
"C  c #4B4E6D",
"Z  c #514C66",
"A  c #504E6A",
"S  c #4E516D",
"D  c #4D526F",
"F  c #555169",
"G  c #51516C",
"H  c #50516D",
"J  c #52516E",
"K  c #56526C",
"L  c #5A5069",
"P  c #5C5368",
"I  c #5A556C",
"U  c #5D566D",
"Y  c #5F566C",
"T  c #5E566D",
"R  c #4A5170",
"E  c #485372",
"W  c #495373",
"Q  c #4A5473",
"!  c #4D5777",
"~  c #505370",
"^  c #535470",
"/  c #535570",
"(  c #535671",
")  c #545571",
"_  c #555672",
"`  c #515774",
"'  c #525774",
"]  c #575774",
"[  c #555873",
"{  c #515974",
"}  c #545976",
"|  c #555B78",
" . c #565C7A",
".. c #595C79",
"X. c #595F7A",
"o. c #595E7B",
"O. c #5B5F7A",
"+. c #595F7D",
"@. c #60596F",
"#. c #675B71",
"$. c #675C71",
"%. c #5E6276",
"&. c #5A6179",
"*. c #5B617A",
"=. c #5C607B",
"-. c #5D617B",
";. c #5E617C",
":. c #5C627F",
">. c #60627A",
",. c #60637E",
"<. c #66677E",
"1. c #63697F",
"2. c #706578",
"3. c #75697A",
"4. c #5F6480",
"5. c #5F6581",
"6. c #626682",
"7. c #636682",
"8. c #626882",
"9. c #636A86",
"0. c #646B84",
"q. c #646B85",
"w. c #676B86",
"e. c #6C6C82",
"r. c #656A88",
"t. c #6B6E88",
"y. c #6C748F",
"u. c #6F748F",
"i. c #71758E",
"p. c #647A95",
"a. c #6C7892",
"s. c #717590",
"d. c #727691",
"f. c #727793",
"g. c #707891",
"h. c #717A91",
"j. c #727993",
"k. c #717B93",
"l. c #727A92",
"z. c #747A95",
"x. c #747D95",
"c. c #757F96",
"v. c #777E97",
"b. c #787D97",
"n. c #777F98",
"m. c #857582",
"M. c #807883",
"N. c #837886",
"B. c #76849A",
"V. c #71809D",
"C. c #73809D",
"Z. c #79819B",
"A. c #7A829B",
"S. c #7B829B",
"D. c #7E8398",
"F. c #7A859D",
"G. c #7C869E",
"H. c #7185A1",
"J. c #7F88A1",
"K. c #7F89A1",
"L. c #7F8BA1",
"P. c #788AA4",
"I. c #788CA5",
"U. c #7787A9",
"Y. c #A3979E",
"T. c #8089A2",
"R. c #818BA2",
"E. c #818EA2",
"W. c #8590A5",
"Q. c #8691A8",
"!. c #8694AA",
"~. c #8893A8",
"^. c #8B96A9",
"/. c #8A97A9",
"(. c #8995AA",
"). c #8995AB",
"_. c #8998AC",
"`. c #8D9EAF",
"'. c #9095AB",
"]. c #8E9EB1",
"[. c #8C9EB5",
"{. c #979FB1",
"}. c #A89BA0",
"|. c #8FA0B2",
" X c #8FA1B2",
".X c #92A2B2",
"XX c #95A0B2",
"oX c #93A0B5",
"OX c #93A4B5",
"+X c #94A6B7",
"@X c #9CA6B7",
"#X c #92A7BC",
"$X c #9BA6B9",
"%X c #97A8B8",
"&X c #9BACBB",
"*X c #ADA4A8",
"=X c #A0B2BF",
"-X c #BEB3B3",
";X c #C8B6B4",
":X c #8AA2C5",
">X c #9EA7C1",
",X c #96AAC0",
"<X c #A3B3C3",
"1X c #A8B5C1",
"2X c #ADB8C7",
"3X c #ACB8C9",
"4X c #ADBEC9",
"5X c #A7BADD",
"6X c #B6C6CF",
"7X c #D7DFE4",
"8X c #DEE4EA",
"9X c #ECF0F1",
/* pixels */
"                                                                ",
"                                                                ",
"                                                                ",
"                                                                ",
"                                                                ",
"            5X3X&X#XI.p.            ,X[.P.                      ",
"          <X8X9X7X6X4X=X XB.+.  U.$X).g.X.l >                   ",
"        H.OX1XXX~.!.).]. X+X.Xx.X.' S k 1                       ",
"        V.g.8.&.1.%.q.x.W.Q.).%X).5.n 4                         ",
"      >X'.<.I M.-X*Xe.} X.g.K.G._.`.9.N                         ",
"    ; s 3 e P N.}.;XY.[ C S q.Z.Z.K._.7.E                       ",
"              w j $.3.>.i.g l =.x.b.Z.T.X.                      ",
"                  7 r A {.q.~ d J t.d.T.g.!                     ",
"                p - = : D.@Xy.J T F :.d.K.:.                    ",
"                M > %     E.n.B #.m.@._ d.y.Q                   ",
"                E $ +     &.F.r.i L 2.T ] z.'                   ",
"                E >         { a.| 2 i T Z 7.,.                  ",
"                  8             V     i K _ =.                  ",
"                                        g / /                   ",
"                                          J c                   ",
"                                          h v                   ",
"                                            /                   ",
"                                             .                  ",
"                                            m 5.V.:X            ",
"                                          6 = 9 c g.oX2X        ",
"                                        a = . @ + 5 t b q       ",
"                                        0 o .                   ",
"                                        $                       ",
"                                                                ",
"                                                                ",
"                                                                ",
"                                                                "
};
