/* XPM */
static char *ba07a4a03f0f4a1f8ed4d0971fac16f0xLpXmqLC8Dv8ciXc[] = {
/* columns rows colors chars-per-pixel */
"32 32 112 2 ",
"   c #617C34",
".  c #637D35",
"X  c #627E35",
"o  c #5F7A33",
"O  c #627C35",
"+  c #5B7731",
"@  c #617B34",
"#  c #627D35",
"$  c #5F7B33",
"%  c #597730",
"&  c #607C34",
"*  c #678038",
"=  c #637D36",
"-  c #607A34",
";  c #617C35",
":  c #647E36",
">  c #5E7A33",
",  c #5D7932",
"<  c #5F7933",
"1  c #607B34",
"2  c #5D7A33",
"3  c #637C35",
"4  c #5E7933",
"5  c #5F7B34",
"6  c #647F36",
"7  c #617D35",
"8  c #5C7732",
"9  c #607934",
"0  c #637E36",
"q  c #5D7833",
"w  c #5D7832",
"e  c #637C36",
"r  c #627B35",
"t  c #667F37",
"y  c #698239",
"u  c #647D36",
"i  c #5C7832",
"p  c #5B7631",
"a  c #617A34",
"s  c #5C7932",
"d  c #597630",
"f  c #5D7732",
"g  c #617B35",
"h  c #677F38",
"j  c None",
"k  c #5E7732",
"l  c #5E7833",
"z  c #5F7833",
"x  c #657E37",
"c  c #607933",
"v  c #5F7A34",
"b  c #657F37",
"n  c #5C7631",
"m  c #657E36",
"M  c #5B7832",
"N  c #637B35",
"B  c #5F7833",
"V  c #5E7B33",
"C  c #657D36",
"Z  c #647C36",
"A  c #617733",
"S  c #607934",
"D  c #5F7934",
"F  c #627A35",
"G  c #5E7932",
"H  c #657F36",
"J  c #637E35",
"K  c #5D7933",
"L  c #5E7732",
"P  c #667E37",
"I  c #657C36",
"U  c #597530",
"Y  c #607833",
"T  c #607834",
"R  c #5D7A32",
"E  c #597430",
"W  c #5D7632",
"Q  c #5F7733",
"!  c #688038",
"~  c #5C7731",
"^  c #678037",
"/  c #5A7631",
"(  c #5A7430",
")  c #668037",
"_  c #5A7530",
"`  c #687F38",
"'  c #5C7632",
"]  c #637A35",
"[  c #5F7733",
"{  c #5F7632",
"}  c #5B7831",
"|  c #5A7430",
" . c #5E7733",
".. c #607A33",
"X. c #5E7832",
"o. c #587430",
"O. c #607733",
"+. c #587530",
"@. c #698139",
"#. c #617934",
"$. c #688138",
"%. c #57732F",
"&. c #58722F",
"*. c #587330",
"=. c #5C7531",
"-. c #647B35",
";. c #627A34",
":. c #667D37",
">. c #5A7731",
",. c #658037",
"<. c #607833",
"1. c white",
/* pixels */
"  .   X o O + @ # $ $ % & * = - ; o : > , & < @ o , 1 2 O 3 4 > ",
"@ 5 o 1 > 6   # : 7 # o 1 O 4 8 O 9 0 1 O o 4 >   1 > q 3 o   w ",
"e r t y O . . 3 u 1 1 4 O < ; i - p a O 3 O a 1 s < O r 1 $ 1 @ ",
"d f - t   5 = 8 4 . g - h 3 1 8 j k l z < 3 x # > l @ c ; v 5 b ",
"< o -   g f - o 4 ; o < * # 4 , n 3 r @ @ 3 m 4 M a N o B f ; < ",
"l - = ; 4 < 8 7 , V   @ e < < C O Z < 4 a < v a s & 1 4 A 4   r ",
"S - D - - & p - 1 $   7 O F r 4 > G w @ 4 > , o + > : 4 r 5 @ f ",
"N l < t H u 3 O 1 ; J O 9 = J q w 4 < r K : = 6 v 8 1 g u ,   f ",
"c L k @ b 4 @ u v - o z w v : P 1 - . O 1 O = . - w 4 N I - i U ",
"p n Y T F > o v r 4 i u O . @ 4 - k O o o c - R 4 w O x 3 1 l E ",
"O # r Y c 4 : a - W f @ - u u O 3 w o w v : - p i l U = $   u f ",
"x 1 > 4 Q a ! @ 4 @ c i O O - t ; O 1 a t ; i ~ i a @ : > m O i ",
"u o 4 w c 4 ^ 3 1 ; < 8 < > , ; 1 4 p < . a w 1 : . m t 1 e Y @ ",
"O > o # # 1 O 1 1 K - t : 0 v K / o / - p U l w O 1 9 u z U f 9 ",
"+ M O u 0 o g 1 o 1   . 4 u 1 $ ; 4 a u 4 8 - i > # ( w 4 + i w ",
"f o v N v 1 : . 1 ) @ _ l `   s K 1 O   w - l +   , 8 . 1 7 1 ' ",
"@ ] [ 4 (   : @ O O l @ & r w 4 , + m . M i O 1 9 v ; t = O > u ",
"1 n { 7   & O } O 4 i . ; 3 - 1 O i o . b 1 @ 1 8 , K ; 3 _ 4 P ",
"w + . 1 0 :   O 0 1 $ # . $ $ & :   w # J 6 = & r . v > < | z g ",
"l i H J . Z w - ; - > v = . . o 1 : o 1 O   @ 4 o   O @ 9 Y w ' ",
"r - ; m - < < @ # i v 4 4 0 r  .- O ..i 1 r X.l 1 U @ O . 4 l w ",
"Z 0 #   r 1 l z 0 # 4 a < v F < 4 o < w O ) @ # 3 o.o < $ - z O.",
"1 # > +.@ u ; ' U . 1 - W @ , 1 & u # O @.x : & - @ 4 f O O 1 ' ",
"< b & 4 - . u < #.O . 4 < 6 J g u & p ; $.P O - g O w 9 O O , > ",
", . J O 4 O g r O , x . }   O #.N 0 - o > o @ ; , 1 i w o @ @ , ",
"- = # 1 o ; v 1 7 , w l +.4 w u   w o >   6 o # o O d ~ ; = O o ",
"0 & @ X.  = 1 O l %.p < w , s # O < 4 R , 8 w O @ i &.r * e p @ ",
"r o *.z & @ 1 : Z l - . t O ;   m - @ o @ l @ - ; > =.-.. l 8 9 ",
"i o ;.r t )   & # : 0 5 # 7 R ; m t :.z 1 u < 4 4 >.s 1 3 c 3 @ ",
"2 s / f 1 m . > l 6 ; ; 9 l K v ; ,.r < 1 Z f ' u v , 1 : r 3 O ",
",.o $ O O $ o : R & 8 / 4 3 @ Z <   4 > = 4 @ < r 9 1 O @ r , ; ",
"; < s : @ 1 o u $ 4 l U i x = o 1 O F O 1 i b # f <.C & w ; i O "
};
