/* XPM */
static char *_e87cf07ee7445f18ddb57158a1fc3cfe0Iwjt4zRz8GZWMC[] = {
/* columns rows colors chars-per-pixel */
"32 32 134 2 ",
"   c #300417",
".  c #35051A",
"X  c #3C051E",
"o  c #6D291D",
"O  c #76251D",
"+  c #7F2A1B",
"@  c #430621",
"#  c #4A0725",
"$  c #460923",
"%  c #4B0A26",
"&  c #4F0728",
"*  c #4E0B28",
"=  c #540A2A",
"-  c #5A0C2E",
";  c #4B1126",
":  c #4E1129",
">  c #4D1C29",
",  c #541226",
"<  c #591525",
"1  c #531C27",
"2  c #5E1C27",
"3  c #54132B",
"4  c #5C132D",
"5  c #541C28",
"6  c #5B1A29",
"7  c #5D0C31",
"8  c #5C1030",
"9  c #600E2F",
"0  c #631C26",
"q  c #6A1F25",
"w  c #62152E",
"e  c #6A172E",
"r  c #641C2B",
"t  c #6A1A2D",
"y  c #620D31",
"u  c #631331",
"i  c #6B1C31",
"p  c #472127",
"a  c #4D2127",
"s  c #572622",
"d  c #5C2423",
"f  c #5F2029",
"g  c #612726",
"h  c #6B2222",
"j  c #632922",
"k  c #64212D",
"l  c #6A212E",
"z  c #722422",
"x  c #7A2624",
"c  c #722E21",
"v  c #7B2A24",
"b  c #762429",
"n  c #7B2728",
"m  c #7F342D",
"M  c #642130",
"N  c #682130",
"B  c #8A2E17",
"V  c #842C1B",
"C  c #8C2E1C",
"Z  c #813017",
"A  c #863218",
"S  c #8D311E",
"D  c #953115",
"F  c #9C3114",
"G  c #95341A",
"H  c #98361C",
"J  c #AE350F",
"K  c #B5360E",
"L  c #BC360C",
"P  c #A23512",
"I  c #AB3612",
"U  c #A3361B",
"Y  c #B63912",
"T  c #BC3D14",
"R  c #822927",
"E  c #822E2A",
"W  c #813424",
"Q  c #8B3021",
"!  c #943422",
"~  c #9A3722",
"^  c #9F3922",
"/  c #973A29",
"(  c #9A3B29",
")  c #A23A24",
"_  c #C1370C",
"`  c #C3380D",
"'  c #CA3B0E",
"]  c #CB3C0E",
"[  c #C33B10",
"{  c #C23D14",
"}  c #C33F17",
"|  c #CC3C10",
" . c #964134",
".. c #A94122",
"X. c #AB4225",
"o. c #BD482A",
"O. c #A24735",
"+. c #A54835",
"@. c #BD5136",
"#. c #BA5238",
"$. c #C24017",
"%. c #CF4417",
"&. c #C74218",
"*. c #C3441C",
"=. c #CB461C",
"-. c #D64213",
";. c #DA4213",
":. c #D84414",
">. c #DB4515",
",. c #D4481D",
"<. c #D94B1F",
"1. c #E14716",
"2. c #E34817",
"3. c #E54917",
"4. c #E74A19",
"5. c #E24C1C",
"6. c #EB4C1A",
"7. c #F24F1B",
"8. c #F3501D",
"9. c #FC551F",
"0. c #C04420",
"q. c #D04B21",
"w. c #D84B20",
"e. c #DB582F",
"r. c #DE5A31",
"t. c #EE5120",
"y. c #E35A2F",
"u. c #EB5B2D",
"i. c #F25322",
"p. c #FF5722",
"a. c #EB5E30",
"s. c #E2633B",
"d. c #EB673C",
"f. c #FF6939",
/* pixels */
"= u W ....E 7 # 3 > * ; p y y - - y y p ; * > 3 # 7 E ....W u = ",
"= r ,.4.7.^ 7 - y % X $ ; = > 3 3 > = ; $ X % y - 7 ^ 7.4.,.r = ",
"@ 0 { | -.! 8 d 6 = X X @ % 4 - - 4 % @ X X = 6 d 8 ! -.| { 0 @ ",
"X , F L T 0 = 1 4 y r k w w v w w v w w k r y 4 1 = 0 T L F , X ",
"  $ h V x , # 8 i +.s.d.O.u f - - f u O.d.s.+.i 8 # , x V h $   ",
"  X - k M - # =  .f.i.t.r.r = $ $ = r r.t.i.f. .= # - M k - X   ",
"  = u #.e.E 7 = l q.' | w.0 @ . . @ 0 w.| ' q.l = 7 E e.#.u =   ",
"X = r =.;.! 8 > - v [ ` ! * X X X X * ! ` [ v - > 8 ! ;.=.r = X ",
"6 y - C K h # 3 = 6 I J 2 @ = w w = @ 2 J I 6 = 3 # h K C - y 6 ",
"j 4 - w h - - y y y 0 q $ . % V V % . $ q 0 y y y - - h w - 4 j ",
"3 y t ! v y y d 6 # & 7 # = = 6 6 = = # 7 & # 6 d y y v ! t y 3 ",
"% - ! 3.&.r = 3 # . & n ~ r - = = - r ~ n & . # 3 = r &.3.! - % ",
"X # S ' Y 6 X @ @ . # v %.v % . . % v %.v # . @ @ X 6 Y ' S # X ",
"@ # 0 K V % X = 7 - # 2 G 4 X     X 4 G 2 # - 7 = X % V K 0 # @ ",
"7 y w B 0 # - t ! t - , d * .     . * d , - t ! t - # 0 B 4 y 7 ",
"c R - 4 u y 7 Q :.Q - @ 3 # X X X X # 3 @ - Q :.Q 7 y u 4 - R c ",
"A U 3 = g 6 @ < B t - # = % 4 k k 4 % = # - t B < @ 6 g = 3 U A ",
"5 , @ = 6 - & - a - 8 6 4 u @.a.a.@.u 4 6 8 - a - & - 6 = @ , 5 ",
"@ @ - u k N i u 4 # = s w l u.p.p.u.l w s = # 4 u i N k u - @ @ ",
"X = w o.u.u.y.m = . # > - t 5.6.6.5.t - > # . = m y.u.u.o.w = X ",
"  # r t.9.8.9.X.3 = = = @ 6 $.| | $.6 @ = = = 3 X.9.8.9.t.r #   ",
". @ w 0.2.:.6.,.0 u t y # % C ` ` C % # y t u 0 ,.6.:.2.0.w @ . ",
"= - y n { ` | { 6 ! *.r = X 0 Y Y 0 X = r *.! 6 { | ` { n y - = ",
"w ! b - x K L V = z P 6 # . * V V * . # 6 P z = V L K x - b ! w ",
"6 H q = - h z 3 X # 6 3 @ # - 1 1 - # @ 3 6 # X 3 z h - = q H 6 ",
"% 3 3 y R E u - * 0 r - # 9 u - - u 9 # - r 0 * - u E R y 3 3 % ",
"7 7 = w { *.r e ^ ,.<.) e w S w w S w e ) <.,.^ e r *.{ w = 7 7 ",
"~ ( i w D O - ! 2.| -.6.~ 5 h % % h 5 ~ 6.-.| 1.! - O D w i ( ~ ",
"-.4./ - 0 , % Q | L ` :.! 3 u 0 0 u 3 ! :.` L | Q % , 0 - / 4.-.",
"_ ] S # = w h k F _ ` U w = r *.*.r = w U ` _ F k h w = # S ] _ ",
"V + < @ % 0 h - + _ J 2 h z - z z - z h 2 J _ + - h 0 % @ < + V ",
"* - = 3 3 y = @ 2 Z o 8 j 0 # : : # 0 j 8 o Z 2 @ = y 3 3 = - * "
};
